# xmcd
#
# Track frame offsets: 
#        150
#        15630
#        33565
#        50768
#        67765
#        80765
#        95862
#        112108
#        127300
#        145572
#        162623
#        182575
#
# Disc length: 2686 seconds
#
# Revision: 3
# Processed by: cddbd v1.5.2PL0 Copyright (c) Steve Scherf et al.
# Submitted via: ExactAudioCopy v0.99pb4
#
DISCID=af0a7c0c
DTITLE=Terri Clark - Pain to Kill
DYEAR=2003
DGENRE=Country
TTITLE0=I Just Wanna Be Mad
TTITLE1=Three Mississippi
TTITLE2=Pain to Kill
TTITLE3=I Just Called to Say Goodbye
TTITLE4=I Wanna Do It All
TTITLE5=The One You Love
TTITLE6=Almost Gone
TTITLE7=Working Girl
TTITLE8=Better Than You
TTITLE9=Not a Bad Thing
TTITLE10=The First to Fall
TTITLE11=God and Me
EXTD=
EXTT0=
EXTT1=
EXTT2=
EXTT3=
EXTT4=
EXTT5=
EXTT6=
EXTT7=
EXTT8=
EXTT9=
EXTT10=
EXTT11=
PLAYORDER=
